<?xml version="1.0" encoding="UTF-8"?> <svg xmlns="http://www.w3.org/2000/svg" width="2560" height="50" viewBox="0 0 2560 50"><g fill="none" fill-rule="evenodd" stroke="#6F7EA5" transform="translate(60 -4)"><polygon stroke-linejoin="round" points="730.02 12 735.1 19.13 723.05 32.8 711 19.13 716.09 12"></polygon><line x1="711.85" x2="734.25" y1="19.08" y2="19.08" stroke-linecap="square"></line><line x1="722.96" x2="729.71" y1="32.13" y2="12.4" stroke-linecap="square"></line><line x1="723.14" x2="716.39" y1="32.13" y2="12.4" stroke-linecap="square"></line><line x1="723.05" x2="718.6" y1="12.4" y2="18.8" stroke-linecap="square"></line><line x1="723.14" x2="727.59" y1="12.4" y2="18.8" stroke-linecap="square"></line><polygon stroke-linejoin="round" points="203.02 19 208.1 26.13 196.05 39.8 184 26.13 189.09 19"></polygon><line x1="184.85" x2="207.25" y1="26.08" y2="26.08" stroke-linecap="square"></line><line x1="195.96" x2="202.71" y1="39.13" y2="19.4" stroke-linecap="square"></line><line x1="196.14" x2="189.39" y1="39.13" y2="19.4" stroke-linecap="square"></line><line x1="196.05" x2="191.6" y1="19.4" y2="25.8" stroke-linecap="square"></line><line x1="196.14" x2="200.59" y1="19.4" y2="25.8" stroke-linecap="square"></line><polygon stroke-linejoin="round" points="437.02 26 442.1 33.13 430.05 46.8 418 33.13 423.09 26"></polygon><line x1="418.85" x2="441.25" y1="33.08" y2="33.08" stroke-linecap="square"></line><line x1="429.96" x2="436.71" y1="46.13" y2="26.4" stroke-linecap="square"></line><line x1="430.14" x2="423.39" y1="46.13" y2="26.4" stroke-linecap="square"></line><line x1="430.05" x2="425.6" y1="26.4" y2="32.8" stroke-linecap="square"></line><line x1="430.14" x2="434.59" y1="26.4" y2="32.8" stroke-linecap="square"></line><polygon stroke-linejoin="round" points="1502.02 24.98 1507.1 32.11 1495.05 45.77 1483 32.11 1488.09 24.98"></polygon><line x1="1483.85" x2="1506.25" y1="32.05" y2="32.05" stroke-linecap="square"></line><line x1="1494.96" x2="1501.71" y1="45.1" y2="25.38" stroke-linecap="square"></line><line x1="1495.14" x2="1488.39" y1="45.1" y2="25.38" stroke-linecap="square"></line><line x1="1495.05" x2="1490.6" y1="25.38" y2="31.78" stroke-linecap="square"></line><line x1="1495.14" x2="1499.59" y1="25.38" y2="31.78" stroke-linecap="square"></line><polygon stroke-linejoin="round" points="1930.52 14.97 1935.6 22.11 1923.55 35.77 1911.5 22.11 1916.59 14.97"></polygon><line x1="1912.35" x2="1934.75" y1="22.05" y2="22.05" stroke-linecap="square"></line><line x1="1923.46" x2="1930.21" y1="35.1" y2="15.38" stroke-linecap="square"></line><line x1="1923.64" x2="1916.89" y1="35.1" y2="15.38" stroke-linecap="square"></line><line x1="1923.55" x2="1919.1" y1="15.38" y2="21.78" stroke-linecap="square"></line><line x1="1923.64" x2="1928.09" y1="15.38" y2="21.78" stroke-linecap="square"></line><polygon stroke-linejoin="round" points="2241.02 34.98 2246.1 42.11 2234.05 55.77 2222 42.11 2227.09 34.98"></polygon><line x1="2222.85" x2="2245.25" y1="42.05" y2="42.05" stroke-linecap="square"></line><line x1="2233.96" x2="2240.71" y1="55.1" y2="35.38" stroke-linecap="square"></line><line x1="2234.14" x2="2227.39" y1="55.1" y2="35.38" stroke-linecap="square"></line><line x1="2234.05" x2="2229.6" y1="35.38" y2="41.78" stroke-linecap="square"></line><line x1="2234.14" x2="2238.59" y1="35.38" y2="41.78" stroke-linecap="square"></line><path d="M908 28.48C911.457303 28.48 914.26 31.2826975 914.26 34.74L914.26 35 914.26 35M908 28.48C911.458919 28.4744834 914.26 25.6689239 914.26 22.21L914.26 22 914.26 22M920.53 28.48C917.071076 28.48 914.265517 31.2810805 914.26 34.74L914.26 35 914.26 35M920.53 28.48C917.067175 28.48 914.26 25.6728254 914.26 22.21L914.26 22 914.26 22M516.5 22.5C519.957303 22.5 522.76 25.3026975 522.76 28.76L522.76 29 522.76 29M516.5 22.5C518.160255 22.5 519.752511 21.8404662 520.926488 20.6664885 522.100466 19.4925107 522.76 17.9002552 522.76 16.24L522.76 16 522.76 16"></path><path d="M529 22.5C525.541076 22.5 522.735517 25.3010805 522.73 28.76L522.73 29 522.73 29M529 22.5C525.541076 22.5 522.735517 19.6989195 522.73 16.24L522.73 16 522.73 16M250 42.5C253.457303 42.5 256.26 45.3026975 256.26 48.76L256.26 49 256.26 49M250 42.5C253.457303 42.5 256.26 39.6973025 256.26 36.24L256.26 36 256.26 36M262.53 42.5C259.071076 42.5 256.265517 45.3010805 256.26 48.76L256.26 49 256.26 49M262.53 42.5C259.071076 42.5 256.265517 39.6989195 256.26 36.24L256.26 36 256.26 36M104 23C107.457303 23 110.26 25.8026975 110.26 29.26L110.26 29.5 110.26 29.5M104 23C107.457303 23 110.26 20.1973025 110.26 16.74L110.26 16.5 110.26 16.5M116.53 23C113.071076 23 110.265517 25.8010805 110.26 29.26L110.26 29.5 110.26 29.5M116.53 23C113.071076 23 110.265517 20.1989195 110.26 16.74L110.26 16.5 110.26 16.5M1630 39.5C1633.4573 39.5 1636.26 42.3026975 1636.26 45.76L1636.26 46 1636.26 46M1630 39.5C1633.4573 39.5 1636.26 36.6973025 1636.26 33.24L1636.26 33 1636.26 33M1642.53 39.5C1639.07108 39.5 1636.26552 42.3010805 1636.26 45.76L1636.26 46 1636.26 46M1642.53 39.5C1639.07108 39.5 1636.26552 36.6989195 1636.26 33.24L1636.26 33 1636.26 33M1820 22.5C1823.4573 22.5 1826.26 25.3026975 1826.26 28.76L1826.26 29 1826.26 29M1820 22.5C1821.66026 22.5 1823.25251 21.8404662 1824.42649 20.6664885 1825.60047 19.4925107 1826.26 17.9002552 1826.26 16.24L1826.26 16 1826.26 16M1832.53 22.5C1829.07108 22.5 1826.26552 25.3010805 1826.26 28.76L1826.26 29 1826.26 29M1832.53 22.5C1829.07108 22.5 1826.26552 19.6989195 1826.26 16.24L1826.26 16 1826.26 16M2426 25.48C2427.66026 25.48 2429.25251 26.1395338 2430.42649 27.3135115 2431.60047 28.4874893 2432.26 30.0797448 2432.26 31.74L2432.26 32 2432.26 32M2426 25.48C2429.45892 25.4744834 2432.26 22.6689239 2432.26 19.21L2432.26 19 2432.26 19M2438.53 25.48C2435.07108 25.48 2432.26552 28.2810805 2432.26 31.74L2432.26 32 2432.26 32M2438.53 25.48C2435.06717 25.48 2432.26 22.6728254 2432.26 19.21L2432.26 19 2432.26 19M2020 42.5C2023.4573 42.5 2026.26 45.3026975 2026.26 48.76L2026.26 49 2026.26 49M2020 42.5C2023.4573 42.5 2026.26 39.6973025 2026.26 36.24L2026.26 36 2026.26 36M2032.53 42.5C2029.07108 42.5 2026.26552 45.3010805 2026.26 48.76L2026.26 49 2026.26 49M2032.53 42.5C2029.07108 42.5 2026.26552 39.6989195 2026.26 36.24L2026.26 36 2026.26 36M2173 21.48C2174.66026 21.48 2176.25251 22.1395338 2177.42649 23.3135115 2178.60047 24.4874893 2179.26 26.0797448 2179.26 27.74L2179.26 28 2179.26 28M2173 21.48C2176.45892 21.4744834 2179.26 18.6689239 2179.26 15.21L2179.26 15 2179.26 15M2185.53 21.48C2182.07108 21.48 2179.26552 24.2810805 2179.26 27.74L2179.26 28 2179.26 28M2185.53 21.48C2182.06717 21.48 2179.26 18.6728254 2179.26 15.21L2179.26 15 2179.26 15M806.19 35.2C799.47 35.08 793.25 45.59 811.36 56.48 811.372656 56.4589388 811.395429 56.4460555 811.42 56.4460555 811.444571 56.4460555 811.467344 56.4589388 811.48 56.48 830.17 45.23 822.94 34.41 816 35.25 814.017597 35.3740461 812.261115 36.5706013 811.42 38.37 810.578885 36.5706013 808.822403 35.3740461 806.84 35.25 806.62 35.25 806.4 35.25 806.19 35.2zM1704.19 1.2C1697.47 1.08 1691.25 11.59 1709.36 22.48 1709.37266 22.4589388 1709.39543 22.4460555 1709.42 22.4460555 1709.44457 22.4460555 1709.46734 22.4589388 1709.48 22.48 1728.17 11.23 1720.94.41 1714 1.25 1712.0176 1.3740461 1710.26112 2.57060125 1709.42 4.37 1708.57888 2.57060125 1706.8224 1.3740461 1704.84 1.25 1704.62 1.25 1704.4 1.25 1704.19 1.2zM2095.19 23.2C2088.47 23.08 2082.25 33.59 2100.36 44.48 2100.37266 44.4589388 2100.39543 44.4460555 2100.42 44.4460555 2100.44457 44.4460555 2100.46734 44.4589388 2100.48 44.48 2119.17 33.23 2111.94 22.41 2105 23.25 2103.0176 23.3740461 2101.26112 24.5706013 2100.42 26.37 2099.57888 24.5706013 2097.8224 23.3740461 2095.84 23.25 2095.62 23.25 2095.4 23.25 2095.19 23.2zM2348.19 21.2C2341.47 21.08 2335.25 31.59 2353.36 42.48 2353.37266 42.4589388 2353.39543 42.4460555 2353.42 42.4460555 2353.44457 42.4460555 2353.46734 42.4589388 2353.48 42.48 2372.17 31.23 2364.94 20.41 2358 21.25 2356.0176 21.3740461 2354.26112 22.5706013 2353.42 24.37 2352.57888 22.5706013 2350.8224 21.3740461 2348.84 21.25 2348.62 21.25 2348.4 21.25 2348.19 21.2zM594.33 18C587.61 17.88 581.4 28.39 599.51 39.28 599.523273 39.2631415 599.543544 39.2533013 599.565 39.2533013 599.586456 39.2533013 599.606727 39.2631415 599.62 39.28 618.31 28.03 611.09 17.21 604.15 18.05 602.165378 18.174744 600.406229 19.3705057 599.56 21.17 598.721219 19.3790446 596.973555 18.1871074 595 18.06 594.78 18.06 594.57 18.06 594.35 18.01L594.33 18zM328.56.17C321.84.05 315.63 10.55 333.74 21.44 333.753273 21.4231415 333.773544 21.4133013 333.795 21.4133013 333.816456 21.4133013 333.836727 21.4231415 333.85 21.44 352.54 10.2 345.32-.63 338.38.22 336.393924.340488344 334.632807 1.53758733 333.79 3.34 332.954068 1.53619822 331.194603.337610939 329.21.22 328.994738.188435703 328.777557.171729534 328.56.17L328.56.17zM7.31 35.87C.6 35.75-5.62 46.25 12.49 57.14 12.5241641 57.1094427 12.5758359 57.1094427 12.61 57.14 31.3 45.9 24.07 35.07 17.13 35.92 15.1564825 36.0363776 13.4021559 37.2161431 12.55 39 11.7013253 37.2265676 9.96180004 36.0490428 8 35.92 7.78478101 35.8880483 7.56757373 35.8713401 7.35 35.87L7.31 35.87z"></path></g></svg> 